<svg width="996" height="256" xmlns="http://www.w3.org/2000/svg" xmlns:xlink="http://www.w3.org/1999/xlink" xml:space="preserve" overflow="hidden"><defs><linearGradient x1="15.1894" y1="109.701" x2="977.183" y2="109.701" gradientUnits="userSpaceOnUse" spreadMethod="pad" id="fill0"><stop offset="0" stop-color="#FF001D" stop-opacity="1"/><stop offset="0.000175439" stop-color="#FF001C" stop-opacity="1"/><stop offset="0.000438597" stop-color="#FF001B" stop-opacity="1"/><stop offset="0.00109649" stop-color="#FF0018" stop-opacity="1"/><stop offset="0.00197368" stop-color="#FF0013" stop-opacity="1"/><stop offset="0.00236842" stop-color="#FF0010" stop-opacity="1"/><stop offset="0.00245614" stop-color="#FF000F" stop-opacity="1"/><stop offset="0.0027193" stop-color="#FF000D" stop-opacity="1"/><stop offset="0.00385965" stop-color="#FF0E00" stop-opacity="1"/><stop offset="0.00412281" stop-color="#FF1000" stop-opacity="1"/><stop offset="0.00421053" stop-color="#FF1100" stop-opacity="1"/><stop offset="0.00434211" stop-color="#FF1200" stop-opacity="1"/><stop offset="0.00451754" stop-color="#FF1300" stop-opacity="1"/><stop offset="0.0047807" stop-color="#FF1500" stop-opacity="1"/><stop offset="0.00513158" stop-color="#FF1700" stop-opacity="1"/><stop offset="0.00557018" stop-color="#FF1900" stop-opacity="1"/><stop offset="0.00574561" stop-color="#FF1A00" stop-opacity="1"/><stop offset="0.00640351" stop-color="#FF1D00" stop-opacity="1"/><stop offset="0.00745614" stop-color="#FF2100" stop-opacity="1"/><stop offset="0.00899123" stop-color="#FF2600" stop-opacity="1"/><stop offset="0.0103947" stop-color="#FF2A00" stop-opacity="1"/><stop offset="0.0123684" stop-color="#FF2F00" stop-opacity="1"/><stop offset="0.0136842" stop-color="#FF3200" stop-opacity="1"/><stop offset="0.0146491" stop-color="#FF3400" stop-opacity="1"/><stop offset="0.0150877" stop-color="#FF3500" stop-opacity="1"/><stop offset="0.0155702" stop-color="#FF3600" stop-opacity="1"/><stop offset="0.0182018" stop-color="#FF3B00" stop-opacity="1"/><stop offset="0.0199123" stop-color="#FF3E00" stop-opacity="1"/><stop offset="0.0235965" stop-color="#FF4400" stop-opacity="1"/><stop offset="0.0242544" stop-color="#FF4500" stop-opacity="1"/><stop offset="0.0256579" stop-color="#FF4700" stop-opacity="1"/><stop offset="0.0263158" stop-color="#FF4800" stop-opacity="1"/><stop offset="0.0270175" stop-color="#FF4900" stop-opacity="1"/><stop offset="0.0277632" stop-color="#FF4A00" stop-opacity="1"/><stop offset="0.0284649" stop-color="#FF4B00" stop-opacity="1"/><stop offset="0.0307018" stop-color="#FF4E00" stop-opacity="1"/><stop offset="0.0330702" stop-color="#FF5100" stop-opacity="1"/><stop offset="0.0355702" stop-color="#FF5400" stop-opacity="1"/><stop offset="0.0382018" stop-color="#FF5700" stop-opacity="1"/><stop offset="0.0409649" stop-color="#FF5A00" stop-opacity="1"/><stop offset="0.0448246" stop-color="#FF5E00" stop-opacity="1"/><stop offset="0.0458333" stop-color="#FF5F00" stop-opacity="1"/><stop offset="0.046886" stop-color="#FF6000" stop-opacity="1"/><stop offset="0.0478947" stop-color="#FF6100" stop-opacity="1"/><stop offset="0.0489474" stop-color="#FF6200" stop-opacity="1"/><stop offset="0.0500439" stop-color="#FF6300" stop-opacity="1"/><stop offset="0.0510965" stop-color="#FF6400" stop-opacity="1"/><stop offset="0.052193" stop-color="#FF6500" stop-opacity="1"/><stop offset="0.0544737" stop-color="#FF6700" stop-opacity="1"/><stop offset="0.0580263" stop-color="#FF6A00" stop-opacity="1"/><stop offset="0.0604825" stop-color="#FF6C00" stop-opacity="1"/><stop offset="0.0617544" stop-color="#FF6D00" stop-opacity="1"/><stop offset="0.0657018" stop-color="#FF7000" stop-opacity="1"/><stop offset="0.0684211" stop-color="#FF7200" stop-opacity="1"/><stop offset="0.0698246" stop-color="#FF7300" stop-opacity="1"/><stop offset="0.0727193" stop-color="#FF7500" stop-opacity="1"/><stop offset="0.0757018" stop-color="#FF7700" stop-opacity="1"/><stop offset="0.0772368" stop-color="#FF7800" stop-opacity="1"/><stop offset="0.0819737" stop-color="#FF7B00" stop-opacity="1"/><stop offset="0.0836404" stop-color="#FF7C00" stop-opacity="1"/><stop offset="0.0870614" stop-color="#FF7E00" stop-opacity="1"/><stop offset="0.0905702" stop-color="#FF8000" stop-opacity="1"/><stop offset="0.0923684" stop-color="#FF8100" stop-opacity="1"/><stop offset="0.0942544" stop-color="#FF8200" stop-opacity="1"/><stop offset="0.098114" stop-color="#FF8400" stop-opacity="1"/><stop offset="0.100088" stop-color="#FF8500" stop-opacity="1"/><stop offset="0.101711" stop-color="#FF8600" stop-opacity="1"/><stop offset="0.102368" stop-color="#FF8601" stop-opacity="1"/><stop offset="0.102632" stop-color="#FF8606" stop-opacity="1"/><stop offset="0.102895" stop-color="#FF8608" stop-opacity="1"/><stop offset="0.102982" stop-color="#FF8708" stop-opacity="1"/><stop offset="0.103114" stop-color="#FF8709" stop-opacity="1"/><stop offset="0.103289" stop-color="#FF870A" stop-opacity="1"/><stop offset="0.103947" stop-color="#FF870D" stop-opacity="1"/><stop offset="0.104254" stop-color="#FF870E" stop-opacity="1"/><stop offset="0.104474" stop-color="#FF870F" stop-opacity="1"/><stop offset="0.104605" stop-color="#FF880F" stop-opacity="1"/><stop offset="0.104868" stop-color="#FF8810" stop-opacity="1"/><stop offset="0.105219" stop-color="#FF8811" stop-opacity="1"/><stop offset="0.105614" stop-color="#FF8812" stop-opacity="1"/><stop offset="0.105965" stop-color="#FF8813" stop-opacity="1"/><stop offset="0.10614" stop-color="#FF8913" stop-opacity="1"/><stop offset="0.106404" stop-color="#FF8914" stop-opacity="1"/><stop offset="0.107368" stop-color="#FF8916" stop-opacity="1"/><stop offset="0.107895" stop-color="#FF8A17" stop-opacity="1"/><stop offset="0.108377" stop-color="#FF8A18" stop-opacity="1"/><stop offset="0.108904" stop-color="#FF8A19" stop-opacity="1"/><stop offset="0.109211" stop-color="#FF8A1A" stop-opacity="1"/><stop offset="0.109474" stop-color="#FF8B1A" stop-opacity="1"/><stop offset="0.11" stop-color="#FF8B1B" stop-opacity="1"/><stop offset="0.11057" stop-color="#FF8B1C" stop-opacity="1"/><stop offset="0.110877" stop-color="#FF8C1C" stop-opacity="1"/><stop offset="0.111228" stop-color="#FF8C1D" stop-opacity="1"/><stop offset="0.111842" stop-color="#FF8C1E" stop-opacity="1"/><stop offset="0.112325" stop-color="#FF8C1F" stop-opacity="1"/><stop offset="0.112675" stop-color="#FF8D1F" stop-opacity="1"/><stop offset="0.113158" stop-color="#FF8D20" stop-opacity="1"/><stop offset="0.113816" stop-color="#FF8D21" stop-opacity="1"/><stop offset="0.115307" stop-color="#FF8E23" stop-opacity="1"/><stop offset="0.115746" stop-color="#FF8E24" stop-opacity="1"/><stop offset="0.11614" stop-color="#FF8F24" stop-opacity="1"/><stop offset="0.116798" stop-color="#FF8F25" stop-opacity="1"/><stop offset="0.117325" stop-color="#FF8F26" stop-opacity="1"/><stop offset="0.117719" stop-color="#FF9026" stop-opacity="1"/><stop offset="0.118333" stop-color="#FF9027" stop-opacity="1"/><stop offset="0.118991" stop-color="#FF9028" stop-opacity="1"/><stop offset="0.11943" stop-color="#FF9128" stop-opacity="1"/><stop offset="0.12" stop-color="#FF9129" stop-opacity="1"/><stop offset="0.120658" stop-color="#FF912A" stop-opacity="1"/><stop offset="0.121096" stop-color="#FF922A" stop-opacity="1"/><stop offset="0.121711" stop-color="#FF922B" stop-opacity="1"/><stop offset="0.122412" stop-color="#FF922C" stop-opacity="1"/><stop offset="0.122851" stop-color="#FF932C" stop-opacity="1"/><stop offset="0.123465" stop-color="#FF932D" stop-opacity="1"/><stop offset="0.124167" stop-color="#FF932E" stop-opacity="1"/><stop offset="0.124605" stop-color="#FF942E" stop-opacity="1"/><stop offset="0.125219" stop-color="#FF942F" stop-opacity="1"/><stop offset="0.125965" stop-color="#FF9430" stop-opacity="1"/><stop offset="0.126447" stop-color="#FF9530" stop-opacity="1"/><stop offset="0.127105" stop-color="#FF9531" stop-opacity="1"/><stop offset="0.127807" stop-color="#FF9532" stop-opacity="1"/><stop offset="0.128246" stop-color="#FF9632" stop-opacity="1"/><stop offset="0.129649" stop-color="#FF9634" stop-opacity="1"/><stop offset="0.130132" stop-color="#FF9734" stop-opacity="1"/><stop offset="0.130921" stop-color="#FF9735" stop-opacity="1"/><stop offset="0.131579" stop-color="#FF9736" stop-opacity="1"/><stop offset="0.132061" stop-color="#FF9836" stop-opacity="1"/><stop offset="0.132939" stop-color="#FF9837" stop-opacity="1"/><stop offset="0.133509" stop-color="#FF9838" stop-opacity="1"/><stop offset="0.133991" stop-color="#FF9938" stop-opacity="1"/><stop offset="0.134956" stop-color="#FF9939" stop-opacity="1"/><stop offset="0.136009" stop-color="#FF9A3A" stop-opacity="1"/><stop offset="0.136974" stop-color="#FF9A3B" stop-opacity="1"/><stop offset="0.1375" stop-color="#FF9B3B" stop-opacity="1"/><stop offset="0.138114" stop-color="#FF9B3C" stop-opacity="1"/><stop offset="0.138991" stop-color="#FF9B3D" stop-opacity="1"/><stop offset="0.139518" stop-color="#FF9C3D" stop-opacity="1"/><stop offset="0.140219" stop-color="#FF9C3E" stop-opacity="1"/><stop offset="0.141009" stop-color="#FF9C3F" stop-opacity="1"/><stop offset="0.141535" stop-color="#FF9D3F" stop-opacity="1"/><stop offset="0.142368" stop-color="#FF9D40" stop-opacity="1"/><stop offset="0.143114" stop-color="#FF9D41" stop-opacity="1"/><stop offset="0.143684" stop-color="#FF9E41" stop-opacity="1"/><stop offset="0.144605" stop-color="#FF9E42" stop-opacity="1"/><stop offset="0.145746" stop-color="#FF9F43" stop-opacity="1"/><stop offset="0.146754" stop-color="#FF9F44" stop-opacity="1"/><stop offset="0.147325" stop-color="#FFA044" stop-opacity="1"/><stop offset="0.147982" stop-color="#FFA045" stop-opacity="1"/><stop offset="0.148947" stop-color="#FFA046" stop-opacity="1"/><stop offset="0.149518" stop-color="#FFA146" stop-opacity="1"/><stop offset="0.150263" stop-color="#FFA147" stop-opacity="1"/><stop offset="0.151096" stop-color="#FFA148" stop-opacity="1"/><stop offset="0.151667" stop-color="#FFA248" stop-opacity="1"/><stop offset="0.152588" stop-color="#FFA249" stop-opacity="1"/><stop offset="0.153333" stop-color="#FFA24A" stop-opacity="1"/><stop offset="0.153904" stop-color="#FFA34A" stop-opacity="1"/><stop offset="0.154912" stop-color="#FFA34B" stop-opacity="1"/><stop offset="0.15614" stop-color="#FFA44C" stop-opacity="1"/><stop offset="0.157193" stop-color="#FFA44D" stop-opacity="1"/><stop offset="0.157807" stop-color="#FFA54D" stop-opacity="1"/><stop offset="0.158509" stop-color="#FFA54E" stop-opacity="1"/><stop offset="0.159474" stop-color="#FFA54F" stop-opacity="1"/><stop offset="0.160088" stop-color="#FFA64F" stop-opacity="1"/><stop offset="0.160921" stop-color="#FFA650" stop-opacity="1"/><stop offset="0.161798" stop-color="#FFA651" stop-opacity="1"/><stop offset="0.162412" stop-color="#FFA751" stop-opacity="1"/><stop offset="0.163377" stop-color="#FFA752" stop-opacity="1"/><stop offset="0.164123" stop-color="#FFA753" stop-opacity="1"/><stop offset="0.164737" stop-color="#FFA853" stop-opacity="1"/><stop offset="0.165877" stop-color="#FFA854" stop-opacity="1"/><stop offset="0.167149" stop-color="#FFA955" stop-opacity="1"/><stop offset="0.168246" stop-color="#FFA956" stop-opacity="1"/><stop offset="0.16886" stop-color="#FFAA56" stop-opacity="1"/><stop offset="0.169649" stop-color="#FFAA57" stop-opacity="1"/><stop offset="0.170702" stop-color="#FFAA58" stop-opacity="1"/><stop offset="0.171316" stop-color="#FFAB58" stop-opacity="1"/><stop offset="0.172193" stop-color="#FFAB59" stop-opacity="1"/><stop offset="0.173114" stop-color="#FFAB5A" stop-opacity="1"/><stop offset="0.173772" stop-color="#FFAC5A" stop-opacity="1"/><stop offset="0.174781" stop-color="#FFAC5B" stop-opacity="1"/><stop offset="0.17557" stop-color="#FFAC5C" stop-opacity="1"/><stop offset="0.176228" stop-color="#FFAD5C" stop-opacity="1"/><stop offset="0.177368" stop-color="#FFAD5D" stop-opacity="1"/><stop offset="0.17807" stop-color="#FFAD5E" stop-opacity="1"/><stop offset="0.178728" stop-color="#FFAE5E" stop-opacity="1"/><stop offset="0.179912" stop-color="#FFAE5F" stop-opacity="1"/><stop offset="0.18057" stop-color="#FFAF5F" stop-opacity="1"/><stop offset="0.181316" stop-color="#FFAF60" stop-opacity="1"/><stop offset="0.182456" stop-color="#FFAF61" stop-opacity="1"/><stop offset="0.183158" stop-color="#FFB061" stop-opacity="1"/><stop offset="0.184035" stop-color="#FFB062" stop-opacity="1"/><stop offset="0.185044" stop-color="#FFB063" stop-opacity="1"/><stop offset="0.185702" stop-color="#FFB163" stop-opacity="1"/><stop offset="0.186711" stop-color="#FFB164" stop-opacity="1"/><stop offset="0.187632" stop-color="#FFB165" stop-opacity="1"/><stop offset="0.188289" stop-color="#FFB265" stop-opacity="1"/><stop offset="0.18943" stop-color="#FFB266" stop-opacity="1"/><stop offset="0.190263" stop-color="#FFB267" stop-opacity="1"/><stop offset="0.190921" stop-color="#FFB367" stop-opacity="1"/><stop offset="0.192149" stop-color="#FFB368" stop-opacity="1"/><stop offset="0.192895" stop-color="#FFB369" stop-opacity="1"/><stop offset="0.193596" stop-color="#FFB469" stop-opacity="1"/><stop offset="0.194868" stop-color="#FFB46A" stop-opacity="1"/><stop offset="0.19557" stop-color="#FFB56A" stop-opacity="1"/><stop offset="0.19636" stop-color="#FFB56B" stop-opacity="1"/><stop offset="0.197588" stop-color="#FFB56C" stop-opacity="1"/><stop offset="0.198289" stop-color="#FFB66C" stop-opacity="1"/><stop offset="0.199167" stop-color="#FFB66D" stop-opacity="1"/><stop offset="0.200307" stop-color="#FFB66E" stop-opacity="1"/><stop offset="0.201009" stop-color="#FFB76E" stop-opacity="1"/><stop offset="0.201974" stop-color="#FFB76F" stop-opacity="1"/><stop offset="0.203026" stop-color="#FFB770" stop-opacity="1"/><stop offset="0.203728" stop-color="#FFB870" stop-opacity="1"/><stop offset="0.204825" stop-color="#FFB871" stop-opacity="1"/><stop offset="0.205833" stop-color="#FFB872" stop-opacity="1"/><stop offset="0.206535" stop-color="#FFB972" stop-opacity="1"/><stop offset="0.207719" stop-color="#FFB973" stop-opacity="1"/><stop offset="0.208684" stop-color="#FFB974" stop-opacity="1"/><stop offset="0.209386" stop-color="#FFBA74" stop-opacity="1"/><stop offset="0.210614" stop-color="#FFBA75" stop-opacity="1"/><stop offset="0.211491" stop-color="#FFBA76" stop-opacity="1"/><stop offset="0.212237" stop-color="#FFBB76" stop-opacity="1"/><stop offset="0.213596" stop-color="#FFBB77" stop-opacity="1"/><stop offset="0.214386" stop-color="#FFBB78" stop-opacity="1"/><stop offset="0.215088" stop-color="#FFBC78" stop-opacity="1"/><stop offset="0.216491" stop-color="#FFBC79" stop-opacity="1"/><stop offset="0.217281" stop-color="#FFBC7A" stop-opacity="1"/><stop offset="0.218026" stop-color="#FFBD7A" stop-opacity="1"/><stop offset="0.219474" stop-color="#FFBD7B" stop-opacity="1"/><stop offset="0.221053" stop-color="#FFBE7C" stop-opacity="1"/><stop offset="0.222456" stop-color="#FFBE7D" stop-opacity="1"/><stop offset="0.223202" stop-color="#FFBF7D" stop-opacity="1"/><stop offset="0.224035" stop-color="#FFBF7E" stop-opacity="1"/><stop offset="0.225395" stop-color="#FFBF7F" stop-opacity="1"/><stop offset="0.226184" stop-color="#FFC07F" stop-opacity="1"/><stop offset="0.227105" stop-color="#FFC080" stop-opacity="1"/><stop offset="0.228465" stop-color="#FFC081" stop-opacity="1"/><stop offset="0.229254" stop-color="#FFC181" stop-opacity="1"/><stop offset="0.230175" stop-color="#FFC182" stop-opacity="1"/><stop offset="0.231491" stop-color="#FFC183" stop-opacity="1"/><stop offset="0.232281" stop-color="#FFC283" stop-opacity="1"/><stop offset="0.233289" stop-color="#FFC284" stop-opacity="1"/><stop offset="0.234605" stop-color="#FFC285" stop-opacity="1"/><stop offset="0.235395" stop-color="#FFC385" stop-opacity="1"/><stop offset="0.236447" stop-color="#FFC386" stop-opacity="1"/><stop offset="0.237763" stop-color="#FFC387" stop-opacity="1"/><stop offset="0.238553" stop-color="#FFC487" stop-opacity="1"/><stop offset="0.239605" stop-color="#FFC488" stop-opacity="1"/><stop offset="0.240921" stop-color="#FFC489" stop-opacity="1"/><stop offset="0.241711" stop-color="#FFC589" stop-opacity="1"/><stop offset="0.242807" stop-color="#FFC58A" stop-opacity="1"/><stop offset="0.244123" stop-color="#FFC58B" stop-opacity="1"/><stop offset="0.244912" stop-color="#FFC68B" stop-opacity="1"/><stop offset="0.246009" stop-color="#FFC68C" stop-opacity="1"/><stop offset="0.247325" stop-color="#FFC68D" stop-opacity="1"/><stop offset="0.248158" stop-color="#FFC78D" stop-opacity="1"/><stop offset="0.249298" stop-color="#FFC78E" stop-opacity="1"/><stop offset="0.250614" stop-color="#FFC78F" stop-opacity="1"/><stop offset="0.251404" stop-color="#FFC88F" stop-opacity="1"/><stop offset="0.252544" stop-color="#FFC890" stop-opacity="1"/><stop offset="0.253904" stop-color="#FFC891" stop-opacity="1"/><stop offset="0.254737" stop-color="#FFC991" stop-opacity="1"/><stop offset="0.255877" stop-color="#FFC992" stop-opacity="1"/><stop offset="0.257281" stop-color="#FFC993" stop-opacity="1"/><stop offset="0.258114" stop-color="#FFCA93" stop-opacity="1"/><stop offset="0.259211" stop-color="#FFCA94" stop-opacity="1"/><stop offset="0.260658" stop-color="#FFCA95" stop-opacity="1"/><stop offset="0.261491" stop-color="#FFCB95" stop-opacity="1"/><stop offset="0.262588" stop-color="#FFCB96" stop-opacity="1"/><stop offset="0.264079" stop-color="#FFCB97" stop-opacity="1"/><stop offset="0.264912" stop-color="#FFCC97" stop-opacity="1"/><stop offset="0.265965" stop-color="#FFCC98" stop-opacity="1"/><stop offset="0.2675" stop-color="#FFCC99" stop-opacity="1"/><stop offset="0.268377" stop-color="#FFCD99" stop-opacity="1"/><stop offset="0.26943" stop-color="#FFCD9A" stop-opacity="1"/><stop offset="0.271053" stop-color="#FFCD9B" stop-opacity="1"/><stop offset="0.27193" stop-color="#FFCE9B" stop-opacity="1"/><stop offset="0.272895" stop-color="#FFCE9C" stop-opacity="1"/><stop offset="0.274561" stop-color="#FFCE9D" stop-opacity="1"/><stop offset="0.275439" stop-color="#FFCF9D" stop-opacity="1"/><stop offset="0.27636" stop-color="#FFCF9E" stop-opacity="1"/><stop offset="0.278114" stop-color="#FFCF9F" stop-opacity="1"/><stop offset="0.279956" stop-color="#FFD0A0" stop-opacity="1"/><stop offset="0.281711" stop-color="#FFD0A1" stop-opacity="1"/><stop offset="0.282675" stop-color="#FFD0A2" stop-opacity="1"/><stop offset="0.283553" stop-color="#FFD1A2" stop-opacity="1"/><stop offset="0.285263" stop-color="#FFD1A3" stop-opacity="1"/><stop offset="0.28636" stop-color="#FFD1A4" stop-opacity="1"/><stop offset="0.287281" stop-color="#FFD2A4" stop-opacity="1"/><stop offset="0.288904" stop-color="#FFD2A5" stop-opacity="1"/><stop offset="0.290088" stop-color="#FFD2A6" stop-opacity="1"/><stop offset="0.291009" stop-color="#FFD3A6" stop-opacity="1"/><stop offset="0.292544" stop-color="#FFD3A7" stop-opacity="1"/><stop offset="0.29386" stop-color="#FFD3A8" stop-opacity="1"/><stop offset="0.294781" stop-color="#FFD4A8" stop-opacity="1"/><stop offset="0.297675" stop-color="#FFD4AA" stop-opacity="1"/><stop offset="0.298597" stop-color="#FFD5AA" stop-opacity="1"/><stop offset="0.299956" stop-color="#FFD5AB" stop-opacity="1"/><stop offset="0.301579" stop-color="#FFD5AC" stop-opacity="1"/><stop offset="0.3025" stop-color="#FFD6AC" stop-opacity="1"/><stop offset="0.303728" stop-color="#FFD6AD" stop-opacity="1"/><stop offset="0.305482" stop-color="#FFD6AE" stop-opacity="1"/><stop offset="0.306404" stop-color="#FFD7AE" stop-opacity="1"/><stop offset="0.3075" stop-color="#FFD7AF" stop-opacity="1"/><stop offset="0.313289" stop-color="#FFD8B2" stop-opacity="1"/><stop offset="0.31443" stop-color="#FFD8B3" stop-opacity="1"/><stop offset="0.315395" stop-color="#FFD9B3" stop-opacity="1"/><stop offset="0.317193" stop-color="#FFD9B4" stop-opacity="1"/><stop offset="0.318553" stop-color="#FFD9B5" stop-opacity="1"/><stop offset="0.319518" stop-color="#FFDAB5" stop-opacity="1"/><stop offset="0.32114" stop-color="#FFDAB6" stop-opacity="1"/><stop offset="0.322675" stop-color="#FFDAB7" stop-opacity="1"/><stop offset="0.32364" stop-color="#FFDBB7" stop-opacity="1"/><stop offset="0.325088" stop-color="#FFDBB8" stop-opacity="1"/><stop offset="0.326842" stop-color="#FFDBB9" stop-opacity="1"/><stop offset="0.327851" stop-color="#FFDCB9" stop-opacity="1"/><stop offset="0.329123" stop-color="#FFDCBA" stop-opacity="1"/><stop offset="0.331097" stop-color="#FFDCBB" stop-opacity="1"/><stop offset="0.332105" stop-color="#FFDDBB" stop-opacity="1"/><stop offset="0.333158" stop-color="#FFDDBC" stop-opacity="1"/><stop offset="0.335219" stop-color="#FFDDBD" stop-opacity="1"/><stop offset="0.336404" stop-color="#FFDDBE" stop-opacity="1"/><stop offset="0.337412" stop-color="#FFDEBE" stop-opacity="1"/><stop offset="0.339342" stop-color="#FFDEBF" stop-opacity="1"/><stop offset="0.340789" stop-color="#FFDEC0" stop-opacity="1"/><stop offset="0.341842" stop-color="#FFDFC0" stop-opacity="1"/><stop offset="0.343553" stop-color="#FFDFC1" stop-opacity="1"/><stop offset="0.345219" stop-color="#FFDFC2" stop-opacity="1"/><stop offset="0.346272" stop-color="#FFE0C2" stop-opacity="1"/><stop offset="0.347763" stop-color="#FFE0C3" stop-opacity="1"/><stop offset="0.349737" stop-color="#FFE0C4" stop-opacity="1"/><stop offset="0.350789" stop-color="#FFE1C4" stop-opacity="1"/><stop offset="0.352018" stop-color="#FFE1C5" stop-opacity="1"/><stop offset="0.354167" stop-color="#FFE1C6" stop-opacity="1"/><stop offset="0.355351" stop-color="#FFE1C7" stop-opacity="1"/><stop offset="0.356447" stop-color="#FFE2C7" stop-opacity="1"/><stop offset="0.358509" stop-color="#FFE2C8" stop-opacity="1"/><stop offset="0.36" stop-color="#FFE2C9" stop-opacity="1"/><stop offset="0.361097" stop-color="#FFE3C9" stop-opacity="1"/><stop offset="0.364693" stop-color="#FFE3CB" stop-opacity="1"/><stop offset="0.365789" stop-color="#FFE4CB" stop-opacity="1"/><stop offset="0.367281" stop-color="#FFE4CC" stop-opacity="1"/><stop offset="0.36943" stop-color="#FFE4CD" stop-opacity="1"/><stop offset="0.37057" stop-color="#FFE5CD" stop-opacity="1"/><stop offset="0.371798" stop-color="#FFE5CE" stop-opacity="1"/><stop offset="0.374035" stop-color="#FFE5CF" stop-opacity="1"/><stop offset="0.375395" stop-color="#FFE5D0" stop-opacity="1"/><stop offset="0.376535" stop-color="#FFE6D0" stop-opacity="1"/><stop offset="0.378553" stop-color="#FFE6D1" stop-opacity="1"/><stop offset="0.380351" stop-color="#FFE6D2" stop-opacity="1"/><stop offset="0.381535" stop-color="#FFE7D2" stop-opacity="1"/><stop offset="0.383202" stop-color="#FFE7D3" stop-opacity="1"/><stop offset="0.385351" stop-color="#FFE7D4" stop-opacity="1"/><stop offset="0.386535" stop-color="#FFE8D4" stop-opacity="1"/><stop offset="0.387895" stop-color="#FFE8D5" stop-opacity="1"/><stop offset="0.390219" stop-color="#FFE8D6" stop-opacity="1"/><stop offset="0.391579" stop-color="#FFE8D7" stop-opacity="1"/><stop offset="0.392807" stop-color="#FFE9D7" stop-opacity="1"/><stop offset="0.395" stop-color="#FFE9D8" stop-opacity="1"/><stop offset="0.396798" stop-color="#FFE9D9" stop-opacity="1"/><stop offset="0.397982" stop-color="#FFEAD9" stop-opacity="1"/><stop offset="0.399781" stop-color="#FFEADA" stop-opacity="1"/><stop offset="0.402061" stop-color="#FFEADB" stop-opacity="1"/><stop offset="0.403246" stop-color="#FFEBDB" stop-opacity="1"/><stop offset="0.404605" stop-color="#FFEBDC" stop-opacity="1"/><stop offset="0.407061" stop-color="#FFEBDD" stop-opacity="1"/><stop offset="0.408596" stop-color="#FFEBDE" stop-opacity="1"/><stop offset="0.409868" stop-color="#FFECDE" stop-opacity="1"/><stop offset="0.412061" stop-color="#FFECDF" stop-opacity="1"/><stop offset="0.414035" stop-color="#FFECE0" stop-opacity="1"/><stop offset="0.415307" stop-color="#FFEDE0" stop-opacity="1"/><stop offset="0.417105" stop-color="#FFEDE1" stop-opacity="1"/><stop offset="0.419561" stop-color="#FFEDE2" stop-opacity="1"/><stop offset="0.420833" stop-color="#FFEEE2" stop-opacity="1"/><stop offset="0.422193" stop-color="#FFEEE3" stop-opacity="1"/><stop offset="0.424737" stop-color="#FFEEE4" stop-opacity="1"/><stop offset="0.426447" stop-color="#FFEEE5" stop-opacity="1"/><stop offset="0.427763" stop-color="#FFEFE5" stop-opacity="1"/><stop offset="0.429912" stop-color="#FFEFE6" stop-opacity="1"/><stop offset="0.432193" stop-color="#FFEFE7" stop-opacity="1"/><stop offset="0.433509" stop-color="#FFF0E7" stop-opacity="1"/><stop offset="0.435132" stop-color="#FFF0E8" stop-opacity="1"/><stop offset="0.437807" stop-color="#FFF0E9" stop-opacity="1"/><stop offset="0.439342" stop-color="#FFF0EA" stop-opacity="1"/><stop offset="0.440658" stop-color="#FFF1EA" stop-opacity="1"/><stop offset="0.443158" stop-color="#FFF1EB" stop-opacity="1"/><stop offset="0.445307" stop-color="#FFF1EC" stop-opacity="1"/><stop offset="0.446667" stop-color="#FFF2EC" stop-opacity="1"/><stop offset="0.448596" stop-color="#FFF2ED" stop-opacity="1"/><stop offset="0.451316" stop-color="#FFF2EE" stop-opacity="1"/><stop offset="0.454079" stop-color="#FFF3EF" stop-opacity="1"/><stop offset="0.456886" stop-color="#FFF3F0" stop-opacity="1"/><stop offset="0.458904" stop-color="#FFF3F1" stop-opacity="1"/><stop offset="0.460307" stop-color="#FFF4F1" stop-opacity="1"/><stop offset="0.4625" stop-color="#FFF4F2" stop-opacity="1"/><stop offset="0.465175" stop-color="#FFF4F3" stop-opacity="1"/><stop offset="0.466579" stop-color="#FFF5F3" stop-opacity="1"/><stop offset="0.468158" stop-color="#FFF5F4" stop-opacity="1"/><stop offset="0.471053" stop-color="#FFF5F5" stop-opacity="1"/><stop offset="0.473026" stop-color="#FFF5F6" stop-opacity="1"/><stop offset="0.474474" stop-color="#FFF6F6" stop-opacity="1"/><stop offset="0.476886" stop-color="#FFF6F7" stop-opacity="1"/><stop offset="0.479561" stop-color="#FFF6F8" stop-opacity="1"/><stop offset="0.481009" stop-color="#FFF7F8" stop-opacity="1"/><stop offset="0.482763" stop-color="#FFF7F9" stop-opacity="1"/><stop offset="0.485746" stop-color="#FFF7FA" stop-opacity="1"/><stop offset="0.487675" stop-color="#FFF7FB" stop-opacity="1"/><stop offset="0.489211" stop-color="#FFF8FB" stop-opacity="1"/><stop offset="0.491798" stop-color="#FFF8FC" stop-opacity="1"/><stop offset="0.494518" stop-color="#FFF8FD" stop-opacity="1"/><stop offset="0.496053" stop-color="#FFF9FD" stop-opacity="1"/><stop offset="0.497895" stop-color="#FFF9FE" stop-opacity="1"/><stop offset="0.501009" stop-color="#FFF9FF" stop-opacity="1"/><stop offset="0.50364" stop-color="#FEF9FF" stop-opacity="1"/><stop offset="0.505219" stop-color="#FEF8FF" stop-opacity="1"/><stop offset="0.507325" stop-color="#FDF8FF" stop-opacity="1"/><stop offset="0.509561" stop-color="#FCF8FF" stop-opacity="1"/><stop offset="0.511184" stop-color="#FCF7FF" stop-opacity="1"/><stop offset="0.513816" stop-color="#FBF7FF" stop-opacity="1"/><stop offset="0.515702" stop-color="#FAF7FF" stop-opacity="1"/><stop offset="0.517368" stop-color="#FAF6FF" stop-opacity="1"/><stop offset="0.520263" stop-color="#F9F6FF" stop-opacity="1"/><stop offset="0.521974" stop-color="#F9F5FF" stop-opacity="1"/><stop offset="0.523991" stop-color="#F8F5FF" stop-opacity="1"/><stop offset="0.526711" stop-color="#F7F5FF" stop-opacity="1"/><stop offset="0.528465" stop-color="#F7F4FF" stop-opacity="1"/><stop offset="0.531053" stop-color="#F6F4FF" stop-opacity="1"/><stop offset="0.533333" stop-color="#F5F4FF" stop-opacity="1"/><stop offset="0.535132" stop-color="#F5F3FF" stop-opacity="1"/><stop offset="0.538289" stop-color="#F4F3FF" stop-opacity="1"/><stop offset="0.542018" stop-color="#F3F2FF" stop-opacity="1"/><stop offset="0.545219" stop-color="#F2F2FF" stop-opacity="1"/><stop offset="0.547149" stop-color="#F2F1FF" stop-opacity="1"/><stop offset="0.549737" stop-color="#F1F1FF" stop-opacity="1"/><stop offset="0.552456" stop-color="#F0F1FF" stop-opacity="1"/><stop offset="0.55443" stop-color="#F0F0FF" stop-opacity="1"/><stop offset="0.557675" stop-color="#EFF0FF" stop-opacity="1"/><stop offset="0.559868" stop-color="#EEF0FF" stop-opacity="1"/><stop offset="0.56193" stop-color="#EEEFFF" stop-opacity="1"/><stop offset="0.565439" stop-color="#EDEFFF" stop-opacity="1"/><stop offset="0.567544" stop-color="#EDEEFF" stop-opacity="1"/><stop offset="0.570132" stop-color="#ECEEFF" stop-opacity="1"/><stop offset="0.573246" stop-color="#EBEEFF" stop-opacity="1"/><stop offset="0.575439" stop-color="#EBEDFF" stop-opacity="1"/><stop offset="0.578816" stop-color="#EAEDFF" stop-opacity="1"/><stop offset="0.58136" stop-color="#E9EDFF" stop-opacity="1"/><stop offset="0.58364" stop-color="#E9ECFF" stop-opacity="1"/><stop offset="0.5875" stop-color="#E8ECFF" stop-opacity="1"/><stop offset="0.589781" stop-color="#E8EBFF" stop-opacity="1"/><stop offset="0.5925" stop-color="#E7EBFF" stop-opacity="1"/><stop offset="0.596097" stop-color="#E6EBFF" stop-opacity="1"/><stop offset="0.598465" stop-color="#E6EAFF" stop-opacity="1"/><stop offset="0.602061" stop-color="#E5EAFF" stop-opacity="1"/><stop offset="0.605" stop-color="#E4EAFF" stop-opacity="1"/><stop offset="0.6075" stop-color="#E4E9FF" stop-opacity="1"/><stop offset="0.611667" stop-color="#E3E9FF" stop-opacity="1"/><stop offset="0.614211" stop-color="#E3E8FF" stop-opacity="1"/><stop offset="0.617193" stop-color="#E2E8FF" stop-opacity="1"/><stop offset="0.62114" stop-color="#E1E8FF" stop-opacity="1"/><stop offset="0.623772" stop-color="#E1E7FF" stop-opacity="1"/><stop offset="0.627763" stop-color="#E0E7FF" stop-opacity="1"/><stop offset="0.630965" stop-color="#DFE7FF" stop-opacity="1"/><stop offset="0.633728" stop-color="#DFE6FF" stop-opacity="1"/><stop offset="0.638377" stop-color="#DEE6FF" stop-opacity="1"/><stop offset="0.641184" stop-color="#DEE5FF" stop-opacity="1"/><stop offset="0.644518" stop-color="#DDE5FF" stop-opacity="1"/><stop offset="0.64886" stop-color="#DCE5FF" stop-opacity="1"/><stop offset="0.651798" stop-color="#DCE4FF" stop-opacity="1"/><stop offset="0.656316" stop-color="#DBE4FF" stop-opacity="1"/><stop offset="0.659781" stop-color="#DAE4FF" stop-opacity="1"/><stop offset="0.662851" stop-color="#DAE3FF" stop-opacity="1"/><stop offset="0.667982" stop-color="#D9E3FF" stop-opacity="1"/><stop offset="0.67114" stop-color="#D9E2FF" stop-opacity="1"/><stop offset="0.675044" stop-color="#D8E2FF" stop-opacity="1"/><stop offset="0.679693" stop-color="#D7E2FF" stop-opacity="1"/><stop offset="0.682982" stop-color="#D7E1FF" stop-opacity="1"/><stop offset="0.688246" stop-color="#D6E1FF" stop-opacity="1"/><stop offset="0.691886" stop-color="#D5E1FF" stop-opacity="1"/><stop offset="0.695351" stop-color="#D5E0FF" stop-opacity="1"/><stop offset="0.701053" stop-color="#D4E0FF" stop-opacity="1"/><stop offset="0.704605" stop-color="#D4DFFF" stop-opacity="1"/><stop offset="0.709298" stop-color="#D3DFFF" stop-opacity="1"/><stop offset="0.714211" stop-color="#D2DFFF" stop-opacity="1"/><stop offset="0.717939" stop-color="#D2DEFF" stop-opacity="1"/><stop offset="0.724079" stop-color="#D1DEFF" stop-opacity="1"/><stop offset="0.727939" stop-color="#D1DDFF" stop-opacity="1"/><stop offset="0.732018" stop-color="#D0DDFF" stop-opacity="1"/><stop offset="0.738289" stop-color="#CFDDFF" stop-opacity="1"/><stop offset="0.742325" stop-color="#CFDCFF" stop-opacity="1"/><stop offset="0.748158" stop-color="#CEDCFF" stop-opacity="1"/><stop offset="0.753158" stop-color="#CDDCFF" stop-opacity="1"/><stop offset="0.757412" stop-color="#CDDBFF" stop-opacity="1"/><stop offset="0.764386" stop-color="#CCDBFF" stop-opacity="1"/><stop offset="0.768772" stop-color="#CCDAFF" stop-opacity="1"/><stop offset="0.774123" stop-color="#CBDAFF" stop-opacity="1"/><stop offset="0.78057" stop-color="#CADAFF" stop-opacity="1"/><stop offset="0.785175" stop-color="#CAD9FF" stop-opacity="1"/><stop offset="0.792632" stop-color="#C9D9FF" stop-opacity="1"/><stop offset="0.802456" stop-color="#C8D8FF" stop-opacity="1"/><stop offset="0.810395" stop-color="#C7D8FF" stop-opacity="1"/><stop offset="0.815482" stop-color="#C7D7FF" stop-opacity="1"/><stop offset="0.822632" stop-color="#C6D7FF" stop-opacity="1"/><stop offset="0.828991" stop-color="#C5D7FF" stop-opacity="1"/><stop offset="0.834386" stop-color="#C5D6FF" stop-opacity="1"/><stop offset="0.843114" stop-color="#C4D6FF" stop-opacity="1"/><stop offset="0.84864" stop-color="#C4D5FF" stop-opacity="1"/><stop offset="0.855439" stop-color="#C3D5FF" stop-opacity="1"/><stop offset="0.863509" stop-color="#C2D5FF" stop-opacity="1"/><stop offset="0.86943" stop-color="#C2D4FF" stop-opacity="1"/><stop offset="0.879035" stop-color="#C1D4FF" stop-opacity="1"/><stop offset="0.885175" stop-color="#C1D3FF" stop-opacity="1"/><stop offset="0.891667" stop-color="#C0D3FF" stop-opacity="1"/><stop offset="0.901623" stop-color="#BFD3FF" stop-opacity="1"/><stop offset="0.908202" stop-color="#BFD2FF" stop-opacity="1"/><stop offset="0.917982" stop-color="#BED2FF" stop-opacity="1"/><stop offset="0.925658" stop-color="#BDD2FF" stop-opacity="1"/><stop offset="0.932719" stop-color="#BDD1FF" stop-opacity="1"/><stop offset="0.943947" stop-color="#BCD1FF" stop-opacity="1"/><stop offset="0.951272" stop-color="#BCD0FF" stop-opacity="1"/><stop offset="0.96114" stop-color="#BBD0FF" stop-opacity="1"/><stop offset="0.970746" stop-color="#BAD0FF" stop-opacity="1"/><stop offset="0.97864" stop-color="#BACFFF" stop-opacity="1"/><stop offset="0.991228" stop-color="#B9CFFF" stop-opacity="1"/><stop offset="0.998991" stop-color="#B9CEFF" stop-opacity="1"/><stop offset="1" stop-color="#B9CEFF" stop-opacity="1"/></linearGradient></defs><g transform="translate(-1192 -2084)"><g><g><g><g><path d="M15.1894 13.5017 977.183 13.5017 977.183 205.9 15.1894 205.9Z" fill="url(#fill0)" fill-rule="nonzero" transform="matrix(1.00265 0 0 1 1193 2085)"/><path d="M31.2226 215.183 32.9103 215.183 32.9103 222.777 31.2226 222.777Z" fill="#000000" fill-rule="nonzero" fill-opacity="1" transform="matrix(1.00265 0 0 1 1193 2085)"/><path d="M115.608 215.183 117.296 215.183 117.296 222.777 115.608 222.777Z" fill="#000000" fill-rule="nonzero" fill-opacity="1" transform="matrix(1.00265 0 0 1 1193 2085)"/><path d="M199.993 215.183 201.681 215.183 201.681 222.777 199.993 222.777Z" fill="#000000" fill-rule="nonzero" fill-opacity="1" transform="matrix(1.00265 0 0 1 1193 2085)"/><path d="M284.379 215.183 286.066 215.183 286.066 222.777 284.379 222.777Z" fill="#000000" fill-rule="nonzero" fill-opacity="1" transform="matrix(1.00265 0 0 1 1193 2085)"/><path d="M368.764 215.183 370.452 215.183 370.452 222.777 368.764 222.777Z" fill="#000000" fill-rule="nonzero" fill-opacity="1" transform="matrix(1.00265 0 0 1 1193 2085)"/><path d="M453.15 215.183 454.837 215.183 454.837 222.777 453.15 222.777Z" fill="#000000" fill-rule="nonzero" fill-opacity="1" transform="matrix(1.00265 0 0 1 1193 2085)"/><path d="M537.535 215.183 539.223 215.183 539.223 222.777 537.535 222.777Z" fill="#000000" fill-rule="nonzero" fill-opacity="1" transform="matrix(1.00265 0 0 1 1193 2085)"/><path d="M621.92 215.183 623.608 215.183 623.608 222.777 621.92 222.777Z" fill="#000000" fill-rule="nonzero" fill-opacity="1" transform="matrix(1.00265 0 0 1 1193 2085)"/><path d="M706.306 215.183 707.993 215.183 707.993 222.777 706.306 222.777Z" fill="#000000" fill-rule="nonzero" fill-opacity="1" transform="matrix(1.00265 0 0 1 1193 2085)"/><path d="M790.691 215.183 792.379 215.183 792.379 222.777 790.691 222.777Z" fill="#000000" fill-rule="nonzero" fill-opacity="1" transform="matrix(1.00265 0 0 1 1193 2085)"/><path d="M875.076 215.183 876.764 215.183 876.764 222.777 875.076 222.777Z" fill="#000000" fill-rule="nonzero" fill-opacity="1" transform="matrix(1.00265 0 0 1 1193 2085)"/><path d="M959.462 215.183 961.15 215.183 961.15 222.777 959.462 222.777Z" fill="#000000" fill-rule="nonzero" fill-opacity="1" transform="matrix(1.00265 0 0 1 1193 2085)"/><path d="M94.7648 246.743 94.7648 244.127 99.9123 234.169C100.334 233.326 100.756 232.06 100.756 230.541 100.756 229.359 100.165 228.769 99.3216 228.769 98.4777 228.769 97.8027 229.359 97.8027 230.541L97.8027 231.891 94.7648 231.891 94.7648 230.71C94.7648 229.106 95.1867 228.094 96.0306 227.334 96.8744 226.575 98.0558 226.153 99.3216 226.153 100.587 226.153 101.684 226.49 102.444 227.25 103.288 228.009 103.794 229.106 103.794 230.794 103.794 232.313 103.372 234.001 102.697 235.266L98.0558 244.127 103.794 244.127 103.794 246.827 94.7648 246.827Z" fill="#000000" fill-rule="nonzero" fill-opacity="1" transform="matrix(1.00265 0 0 1 1193 2085)"/><path d="M113.92 245.73C113.076 246.49 111.979 246.912 110.714 246.912 109.448 246.912 108.266 246.49 107.423 245.73 106.579 244.971 106.157 243.958 106.157 242.355L106.157 230.625C106.157 229.022 106.663 228.009 107.423 227.25 108.266 226.49 109.448 226.068 110.714 226.068 111.979 226.068 113.161 226.49 113.92 227.25 114.764 228.009 115.186 229.022 115.186 230.625L115.186 242.355C115.27 243.958 114.764 244.971 113.92 245.73ZM112.233 230.541C112.233 229.359 111.557 228.769 110.714 228.769 109.87 228.769 109.195 229.359 109.195 230.541L109.195 242.439C109.195 243.621 109.87 244.211 110.714 244.211 111.557 244.211 112.233 243.621 112.233 242.439L112.233 230.541Z" fill="#000000" fill-rule="nonzero" fill-opacity="1" transform="matrix(1.00265 0 0 1 1193 2085)"/><path d="M125.481 245.73C124.637 246.49 123.54 246.912 122.274 246.912 121.009 246.912 119.827 246.49 118.983 245.73 118.14 244.971 117.718 243.958 117.718 242.355L117.718 230.625C117.718 229.022 118.224 228.009 118.983 227.25 119.827 226.49 121.009 226.068 122.274 226.068 123.54 226.068 124.722 226.49 125.481 227.25 126.325 228.009 126.747 229.022 126.747 230.625L126.747 242.355C126.747 243.958 126.241 244.971 125.481 245.73ZM123.709 230.541C123.709 229.359 123.034 228.769 122.19 228.769 121.346 228.769 120.671 229.359 120.671 230.541L120.671 242.439C120.671 243.621 121.346 244.211 122.19 244.211 123.034 244.211 123.709 243.621 123.709 242.439L123.709 230.541Z" fill="#000000" fill-rule="nonzero" fill-opacity="1" transform="matrix(1.00265 0 0 1 1193 2085)"/><path d="M136.957 245.73C136.114 246.49 135.017 246.912 133.751 246.912 132.485 246.912 131.304 246.49 130.46 245.73 129.616 244.971 129.194 243.958 129.194 242.355L129.194 230.625C129.194 229.022 129.7 228.009 130.46 227.25 131.304 226.49 132.485 226.068 133.751 226.068 135.017 226.068 136.198 226.49 136.957 227.25 137.801 228.009 138.223 229.022 138.223 230.625L138.223 242.355C138.223 243.958 137.801 244.971 136.957 245.73ZM135.185 230.541C135.185 229.359 134.51 228.769 133.666 228.769 132.823 228.769 132.148 229.359 132.148 230.541L132.148 242.439C132.148 243.621 132.823 244.211 133.666 244.211 134.51 244.211 135.185 243.621 135.185 242.439L135.185 230.541Z" fill="#000000" fill-rule="nonzero" fill-opacity="1" transform="matrix(1.00265 0 0 1 1193 2085)"/><path d="M186.829 245.646C185.985 246.405 184.804 246.827 183.538 246.827 182.272 246.827 181.007 246.405 180.247 245.646 179.403 244.886 178.981 243.874 178.981 242.27L178.981 241.089 182.019 241.089 182.019 242.439C182.019 243.621 182.694 244.211 183.538 244.211 184.045 244.211 184.382 243.958 184.635 243.705 185.057 243.199 185.142 241.933 185.142 240.667 185.142 239.317 185.142 238.22 184.72 237.714 184.466 237.376 184.129 237.207 183.538 237.207L182.526 237.207 182.526 234.676 183.538 234.676C183.96 234.676 184.298 234.507 184.551 234.254 184.973 233.748 184.973 232.735 184.973 231.638 184.973 230.625 184.973 229.697 184.551 229.191 184.298 228.938 184.045 228.769 183.538 228.769 182.779 228.769 182.188 229.275 182.188 230.372L182.188 231.807 179.15 231.807 179.15 230.541C179.15 228.938 179.572 227.925 180.416 227.165 181.26 226.406 182.272 225.984 183.538 225.984 184.888 225.984 185.985 226.406 186.66 227.165 187.589 228.094 188.011 229.444 188.011 231.385 188.011 232.735 187.926 233.748 187.504 234.591 187.251 235.098 186.914 235.52 186.407 235.773 186.914 236.11 187.336 236.532 187.589 237.039 188.095 238.051 188.179 239.064 188.179 240.836 188.179 242.946 188.095 244.38 186.829 245.646Z" fill="#000000" fill-rule="nonzero" fill-opacity="1" transform="matrix(1.00265 0 0 1 1193 2085)"/><path d="M198.306 245.646C197.462 246.405 196.365 246.827 195.099 246.827 193.833 246.827 192.652 246.405 191.808 245.646 190.964 244.886 190.542 243.874 190.542 242.27L190.542 230.541C190.542 228.938 191.049 227.925 191.808 227.165 192.652 226.406 193.833 225.984 195.099 225.984 196.365 225.984 197.546 226.406 198.306 227.165 199.15 227.925 199.571 228.938 199.571 230.541L199.571 242.186C199.656 243.874 199.15 244.802 198.306 245.646ZM196.618 230.372C196.618 229.191 195.943 228.6 195.099 228.6 194.255 228.6 193.58 229.191 193.58 230.372L193.58 242.27C193.58 243.452 194.255 244.043 195.099 244.043 195.943 244.043 196.618 243.452 196.618 242.27L196.618 230.372Z" fill="#000000" fill-rule="nonzero" fill-opacity="1" transform="matrix(1.00265 0 0 1 1193 2085)"/><path d="M209.866 245.646C209.023 246.405 207.926 246.827 206.66 246.827 205.394 246.827 204.213 246.405 203.369 245.646 202.525 244.886 202.103 243.874 202.103 242.27L202.103 230.541C202.103 228.938 202.609 227.925 203.369 227.165 204.213 226.406 205.394 225.984 206.66 225.984 207.926 225.984 209.107 226.406 209.866 227.165 210.71 227.925 211.132 228.938 211.132 230.541L211.132 242.186C211.132 243.874 210.626 244.802 209.866 245.646ZM208.094 230.372C208.094 229.191 207.419 228.6 206.575 228.6 205.732 228.6 205.056 229.191 205.056 230.372L205.056 242.27C205.056 243.452 205.732 244.043 206.575 244.043 207.419 244.043 208.094 243.452 208.094 242.27L208.094 230.372Z" fill="#000000" fill-rule="nonzero" fill-opacity="1" transform="matrix(1.00265 0 0 1 1193 2085)"/><path d="M221.343 245.646C220.499 246.405 219.402 246.827 218.136 246.827 216.87 246.827 215.689 246.405 214.845 245.646 214.001 244.886 213.579 243.874 213.579 242.27L213.579 230.541C213.579 228.938 214.086 227.925 214.845 227.165 215.689 226.406 216.87 225.984 218.136 225.984 219.402 225.984 220.583 226.406 221.343 227.165 222.187 227.925 222.609 228.938 222.609 230.541L222.609 242.186C222.609 243.874 222.187 244.802 221.343 245.646ZM219.571 230.372C219.571 229.191 218.896 228.6 218.052 228.6 217.208 228.6 216.533 229.191 216.533 230.372L216.533 242.27C216.533 243.452 217.208 244.043 218.052 244.043 218.896 244.043 219.571 243.452 219.571 242.27L219.571 230.372Z" fill="#000000" fill-rule="nonzero" fill-opacity="1" transform="matrix(1.00265 0 0 1 1193 2085)"/><path d="M271.637 243.367 271.637 246.574 268.599 246.574 268.599 243.367 262.945 243.367 262.945 240.667 268.177 226.153 271.13 226.153 266.067 240.667 268.599 240.667 268.599 237.039 271.637 237.039 271.637 240.667 273.071 240.667 273.071 243.367 271.637 243.367Z" fill="#000000" fill-rule="nonzero" fill-opacity="1" transform="matrix(1.00265 0 0 1 1193 2085)"/><path d="M282.691 245.646C281.847 246.405 280.75 246.827 279.484 246.827 278.219 246.827 277.037 246.405 276.193 245.646 275.349 244.886 274.928 243.874 274.928 242.27L274.928 230.541C274.928 228.938 275.434 227.925 276.193 227.165 277.037 226.406 278.219 225.984 279.484 225.984 280.75 225.984 281.932 226.406 282.691 227.165 283.535 227.925 283.957 228.938 283.957 230.541L283.957 242.186C284.041 243.874 283.535 244.802 282.691 245.646ZM281.003 230.372C281.003 229.191 280.328 228.6 279.484 228.6 278.641 228.6 277.965 229.191 277.965 230.372L277.965 242.27C277.965 243.452 278.641 244.043 279.484 244.043 280.328 244.043 281.003 243.452 281.003 242.27L281.003 230.372Z" fill="#000000" fill-rule="nonzero" fill-opacity="1" transform="matrix(1.00265 0 0 1 1193 2085)"/><path d="M294.252 245.646C293.408 246.405 292.311 246.827 291.045 246.827 289.779 246.827 288.598 246.405 287.754 245.646 286.91 244.886 286.488 243.874 286.488 242.27L286.488 230.541C286.488 228.938 286.995 227.925 287.754 227.165 288.598 226.406 289.779 225.984 291.045 225.984 292.311 225.984 293.492 226.406 294.252 227.165 295.096 227.925 295.518 228.938 295.518 230.541L295.518 242.186C295.518 243.874 295.011 244.802 294.252 245.646ZM292.48 230.372C292.48 229.191 291.805 228.6 290.961 228.6 290.117 228.6 289.442 229.191 289.442 230.372L289.442 242.27C289.442 243.452 290.117 244.043 290.961 244.043 291.805 244.043 292.48 243.452 292.48 242.27L292.48 230.372Z" fill="#000000" fill-rule="nonzero" fill-opacity="1" transform="matrix(1.00265 0 0 1 1193 2085)"/><path d="M305.728 245.646C304.884 246.405 303.787 246.827 302.522 246.827 301.256 246.827 300.074 246.405 299.231 245.646 298.387 244.886 297.965 243.874 297.965 242.27L297.965 230.541C297.965 228.938 298.471 227.925 299.231 227.165 300.074 226.406 301.256 225.984 302.522 225.984 303.787 225.984 304.969 226.406 305.728 227.165 306.572 227.925 306.994 228.938 306.994 230.541L306.994 242.186C306.994 243.874 306.572 244.802 305.728 245.646ZM303.956 230.372C303.956 229.191 303.281 228.6 302.437 228.6 301.593 228.6 300.918 229.191 300.918 230.372L300.918 242.27C300.918 243.452 301.593 244.043 302.437 244.043 303.281 244.043 303.956 243.452 303.956 242.27L303.956 230.372Z" fill="#000000" fill-rule="nonzero" fill-opacity="1" transform="matrix(1.00265 0 0 1 1193 2085)"/><path d="M14.1767 246.574 14.1767 229.697 11.1389 232.06 11.1389 228.6 14.1767 226.153 17.2146 226.153 17.2146 246.574 14.1767 246.574Z" fill="#000000" fill-rule="nonzero" fill-opacity="1" transform="matrix(1.00265 0 0 1 1193 2085)"/><path d="M29.5349 245.646C28.691 246.405 27.594 246.827 26.3282 246.827 25.0625 246.827 23.8811 246.405 23.0372 245.646 22.1934 244.886 21.7714 243.874 21.7714 242.27L21.7714 230.541C21.7714 228.938 22.2777 227.925 23.0372 227.165 23.8811 226.406 25.0625 225.984 26.3282 225.984 27.594 225.984 28.7754 226.406 29.5349 227.165 30.3787 227.925 30.8007 228.938 30.8007 230.541L30.8007 242.186C30.885 243.874 30.3787 244.802 29.5349 245.646ZM27.8472 230.372C27.8472 229.191 27.1721 228.6 26.3282 228.6 25.4844 228.6 24.8093 229.191 24.8093 230.372L24.8093 242.27C24.8093 243.452 25.4844 244.043 26.3282 244.043 27.1721 244.043 27.8472 243.452 27.8472 242.27L27.8472 230.372Z" fill="#000000" fill-rule="nonzero" fill-opacity="1" transform="matrix(1.00265 0 0 1 1193 2085)"/><path d="M41.0957 245.646C40.2518 246.405 39.1548 246.827 37.889 246.827 36.6233 246.827 35.4419 246.405 34.598 245.646 33.7542 244.886 33.3322 243.874 33.3322 242.27L33.3322 230.541C33.3322 228.938 33.8385 227.925 34.598 227.165 35.4419 226.406 36.6233 225.984 37.889 225.984 39.1548 225.984 40.3362 226.406 41.0957 227.165 41.9395 227.925 42.3615 228.938 42.3615 230.541L42.3615 242.186C42.3615 243.874 41.8551 244.802 41.0957 245.646ZM39.3236 230.372C39.3236 229.191 38.6485 228.6 37.8046 228.6 36.9608 228.6 36.2857 229.191 36.2857 230.372L36.2857 242.27C36.2857 243.452 36.9608 244.043 37.8046 244.043 38.6485 244.043 39.3236 243.452 39.3236 242.27L39.3236 230.372Z" fill="#000000" fill-rule="nonzero" fill-opacity="1" transform="matrix(1.00265 0 0 1 1193 2085)"/><path d="M52.5721 245.646C51.7282 246.405 50.6312 246.827 49.3654 246.827 48.0997 246.827 46.9183 246.405 46.0744 245.646 45.2306 244.886 44.8086 243.874 44.8086 242.27L44.8086 230.541C44.8086 228.938 45.315 227.925 46.0744 227.165 46.9183 226.406 48.0997 225.984 49.3654 225.984 50.6312 225.984 51.8126 226.406 52.5721 227.165 53.4159 227.925 53.8379 228.938 53.8379 230.541L53.8379 242.186C53.8379 243.874 53.4159 244.802 52.5721 245.646ZM50.8 230.372C50.8 229.191 50.1249 228.6 49.2811 228.6 48.4372 228.6 47.7621 229.191 47.7621 230.372L47.7621 242.27C47.7621 243.452 48.4372 244.043 49.2811 244.043 50.1249 244.043 50.8 243.452 50.8 242.27L50.8 230.372Z" fill="#000000" fill-rule="nonzero" fill-opacity="1" transform="matrix(1.00265 0 0 1 1193 2085)"/><path d="M355.6 245.561C354.756 246.405 353.659 246.827 352.393 246.827 351.128 246.827 349.946 246.405 349.102 245.646 348.258 244.886 347.837 243.874 347.837 242.27L347.837 241.258 350.874 241.258 350.874 242.692C350.874 243.958 351.549 244.464 352.393 244.464 352.9 244.464 353.237 244.296 353.49 243.958 353.912 243.367 353.912 241.764 353.912 240.076 353.912 238.389 353.912 237.123 353.49 236.448 353.237 236.026 352.815 235.857 352.309 235.857 351.465 235.857 350.79 236.448 350.79 237.629L350.79 238.051 347.921 238.051 347.921 226.153 356.697 226.153 356.697 228.853 350.706 228.853 350.706 234.338C350.959 234.001 351.381 233.579 351.803 233.326 352.225 233.072 352.731 232.988 353.237 232.988 354.503 232.988 355.347 233.41 356.022 234.254 356.866 235.351 357.035 237.207 357.035 239.739 356.95 242.355 356.95 244.211 355.6 245.561Z" fill="#000000" fill-rule="nonzero" fill-opacity="1" transform="matrix(1.00265 0 0 1 1193 2085)"/><path d="M367.076 245.646C366.233 246.405 365.136 246.827 363.87 246.827 362.604 246.827 361.423 246.405 360.579 245.646 359.735 244.886 359.313 243.874 359.313 242.27L359.313 230.541C359.313 228.938 359.819 227.925 360.579 227.165 361.423 226.406 362.604 225.984 363.87 225.984 365.136 225.984 366.317 226.406 367.076 227.165 367.92 227.925 368.342 228.938 368.342 230.541L368.342 242.186C368.427 243.874 367.92 244.802 367.076 245.646ZM365.389 230.372C365.389 229.191 364.714 228.6 363.87 228.6 363.026 228.6 362.351 229.191 362.351 230.372L362.351 242.27C362.351 243.452 363.026 244.043 363.87 244.043 364.714 244.043 365.389 243.452 365.389 242.27L365.389 230.372Z" fill="#000000" fill-rule="nonzero" fill-opacity="1" transform="matrix(1.00265 0 0 1 1193 2085)"/><path d="M378.637 245.646C377.793 246.405 376.696 246.827 375.431 246.827 374.165 246.827 372.983 246.405 372.14 245.646 371.296 244.886 370.874 243.874 370.874 242.27L370.874 230.541C370.874 228.938 371.38 227.925 372.14 227.165 372.983 226.406 374.165 225.984 375.431 225.984 376.696 225.984 377.878 226.406 378.637 227.165 379.481 227.925 379.903 228.938 379.903 230.541L379.903 242.186C379.903 243.874 379.397 244.802 378.637 245.646ZM376.865 230.372C376.865 229.191 376.19 228.6 375.346 228.6 374.502 228.6 373.827 229.191 373.827 230.372L373.827 242.27C373.827 243.452 374.502 244.043 375.346 244.043 376.19 244.043 376.865 243.452 376.865 242.27L376.865 230.372Z" fill="#000000" fill-rule="nonzero" fill-opacity="1" transform="matrix(1.00265 0 0 1 1193 2085)"/><path d="M390.114 245.646C389.27 246.405 388.173 246.827 386.907 246.827 385.641 246.827 384.46 246.405 383.616 245.646 382.772 244.886 382.35 243.874 382.35 242.27L382.35 230.541C382.35 228.938 382.857 227.925 383.616 227.165 384.46 226.406 385.641 225.984 386.907 225.984 388.173 225.984 389.354 226.406 390.114 227.165 390.957 227.925 391.379 228.938 391.379 230.541L391.379 242.186C391.379 243.874 390.957 244.802 390.114 245.646ZM388.342 230.372C388.342 229.191 387.666 228.6 386.823 228.6 385.979 228.6 385.304 229.191 385.304 230.372L385.304 242.27C385.304 243.452 385.979 244.043 386.823 244.043 387.666 244.043 388.342 243.452 388.342 242.27L388.342 230.372Z" fill="#000000" fill-rule="nonzero" fill-opacity="1" transform="matrix(1.00265 0 0 1 1193 2085)"/><path d="M440.323 245.14C439.479 246.321 438.213 246.743 436.694 246.743 435.091 246.743 433.825 246.152 433.15 245.14 432.306 243.958 432.138 242.777 432.138 240.33 432.138 238.473 432.475 236.87 432.981 235.52L436.526 226.068 439.648 226.068 436.272 234.338C436.61 234.085 437.116 234.001 437.538 234.001 438.635 234.001 439.563 234.423 440.239 235.266 440.998 236.195 441.251 237.292 441.251 240.33 441.336 243.114 440.998 244.211 440.323 245.14ZM437.876 237.123C437.623 236.785 437.201 236.617 436.779 236.617 436.357 236.617 435.935 236.785 435.682 237.123 435.175 237.714 435.26 239.148 435.26 240.414 435.26 241.68 435.26 242.946 435.682 243.621 435.935 243.958 436.357 244.127 436.779 244.127 437.201 244.127 437.623 243.958 437.876 243.621 438.382 243.03 438.298 241.68 438.298 240.414 438.298 239.148 438.298 237.714 437.876 237.123Z" fill="#000000" fill-rule="nonzero" fill-opacity="1" transform="matrix(1.00265 0 0 1 1193 2085)"/><path d="M451.462 245.646C450.618 246.405 449.521 246.827 448.255 246.827 446.989 246.827 445.808 246.405 444.964 245.646 444.12 244.886 443.698 243.874 443.698 242.27L443.698 230.541C443.698 228.938 444.205 227.925 444.964 227.165 445.808 226.406 446.989 225.984 448.255 225.984 449.521 225.984 450.702 226.406 451.462 227.165 452.306 227.925 452.728 228.938 452.728 230.541L452.728 242.186C452.812 243.874 452.306 244.802 451.462 245.646ZM449.774 230.372C449.774 229.191 449.099 228.6 448.255 228.6 447.411 228.6 446.736 229.191 446.736 230.372L446.736 242.27C446.736 243.452 447.411 244.043 448.255 244.043 449.099 244.043 449.774 243.452 449.774 242.27L449.774 230.372Z" fill="#000000" fill-rule="nonzero" fill-opacity="1" transform="matrix(1.00265 0 0 1 1193 2085)"/><path d="M463.023 245.646C462.179 246.405 461.082 246.827 459.816 246.827 458.55 246.827 457.369 246.405 456.525 245.646 455.681 244.886 455.259 243.874 455.259 242.27L455.259 230.541C455.259 228.938 455.765 227.925 456.525 227.165 457.369 226.406 458.55 225.984 459.816 225.984 461.082 225.984 462.263 226.406 463.023 227.165 463.866 227.925 464.288 228.938 464.288 230.541L464.288 242.186C464.288 243.874 463.782 244.802 463.023 245.646ZM461.25 230.372C461.25 229.191 460.575 228.6 459.732 228.6 458.888 228.6 458.213 229.191 458.213 230.372L458.213 242.27C458.213 243.452 458.888 244.043 459.732 244.043 460.575 244.043 461.25 243.452 461.25 242.27L461.25 230.372Z" fill="#000000" fill-rule="nonzero" fill-opacity="1" transform="matrix(1.00265 0 0 1 1193 2085)"/><path d="M474.499 245.646C473.655 246.405 472.558 246.827 471.292 246.827 470.027 246.827 468.845 246.405 468.001 245.646 467.157 244.886 466.736 243.874 466.736 242.27L466.736 230.541C466.736 228.938 467.242 227.925 468.001 227.165 468.845 226.406 470.027 225.984 471.292 225.984 472.558 225.984 473.74 226.406 474.499 227.165 475.343 227.925 475.765 228.938 475.765 230.541L475.765 242.186C475.765 243.874 475.343 244.802 474.499 245.646ZM472.727 230.372C472.727 229.191 472.052 228.6 471.208 228.6 470.364 228.6 469.689 229.191 469.689 230.372L469.689 242.27C469.689 243.452 470.364 244.043 471.208 244.043 472.052 244.043 472.727 243.452 472.727 242.27L472.727 230.372Z" fill="#000000" fill-rule="nonzero" fill-opacity="1" transform="matrix(1.00265 0 0 1 1193 2085)"/><path d="M520.489 246.574 517.451 246.574 522.852 228.853 519.308 228.853 519.308 231.553 516.354 231.553 516.354 226.153 525.89 226.153 525.89 228.684 520.489 246.574Z" fill="#000000" fill-rule="nonzero" fill-opacity="1" transform="matrix(1.00265 0 0 1 1193 2085)"/><path d="M535.847 245.646C535.003 246.405 533.906 246.827 532.641 246.827 531.375 246.827 530.193 246.405 529.349 245.646 528.506 244.886 528.084 243.874 528.084 242.27L528.084 230.541C528.084 228.938 528.59 227.925 529.349 227.165 530.193 226.406 531.375 225.984 532.641 225.984 533.906 225.984 535.088 226.406 535.847 227.165 536.691 227.925 537.113 228.938 537.113 230.541L537.113 242.186C537.197 243.874 536.691 244.802 535.847 245.646ZM534.159 230.372C534.159 229.191 533.484 228.6 532.641 228.6 531.797 228.6 531.122 229.191 531.122 230.372L531.122 242.27C531.122 243.452 531.797 244.043 532.641 244.043 533.484 244.043 534.159 243.452 534.159 242.27L534.159 230.372Z" fill="#000000" fill-rule="nonzero" fill-opacity="1" transform="matrix(1.00265 0 0 1 1193 2085)"/><path d="M547.408 245.646C546.564 246.405 545.467 246.827 544.201 246.827 542.936 246.827 541.754 246.405 540.91 245.646 540.066 244.886 539.645 243.874 539.645 242.27L539.645 230.541C539.645 228.938 540.151 227.925 540.91 227.165 541.754 226.406 542.936 225.984 544.201 225.984 545.467 225.984 546.648 226.406 547.408 227.165 548.252 227.925 548.674 228.938 548.674 230.541L548.674 242.186C548.674 243.874 548.167 244.802 547.408 245.646ZM545.636 230.372C545.636 229.191 544.961 228.6 544.117 228.6 543.273 228.6 542.598 229.191 542.598 230.372L542.598 242.27C542.598 243.452 543.273 244.043 544.117 244.043 544.961 244.043 545.636 243.452 545.636 242.27L545.636 230.372Z" fill="#000000" fill-rule="nonzero" fill-opacity="1" transform="matrix(1.00265 0 0 1 1193 2085)"/><path d="M558.884 245.646C558.041 246.405 556.944 246.827 555.678 246.827 554.412 246.827 553.231 246.405 552.387 245.646 551.543 244.886 551.121 243.874 551.121 242.27L551.121 230.541C551.121 228.938 551.627 227.925 552.387 227.165 553.231 226.406 554.412 225.984 555.678 225.984 556.944 225.984 558.125 226.406 558.884 227.165 559.644 227.925 560.15 228.938 560.15 230.541L560.15 242.186C560.15 243.874 559.728 244.802 558.884 245.646ZM557.112 230.372C557.112 229.191 556.437 228.6 555.593 228.6 554.75 228.6 554.074 229.191 554.074 230.372L554.074 242.27C554.074 243.452 554.75 244.043 555.593 244.043 556.437 244.043 557.112 243.452 557.112 242.27L557.112 230.372Z" fill="#000000" fill-rule="nonzero" fill-opacity="1" transform="matrix(1.00265 0 0 1 1193 2085)"/><path d="M608.756 245.646C607.912 246.49 606.731 246.827 605.549 246.827 604.368 246.827 603.102 246.405 602.258 245.646 601.077 244.464 600.908 243.114 600.908 240.836 600.908 239.148 600.993 238.136 601.499 237.207 601.752 236.701 602.174 236.279 602.68 235.942 602.174 235.604 601.837 235.182 601.583 234.676 601.161 233.748 601.077 232.904 601.077 231.469 601.077 229.528 601.33 228.178 602.427 227.081 603.271 226.237 604.284 225.9 605.549 225.9 606.815 225.9 607.912 226.237 608.672 227.081 609.684 228.094 610.022 229.444 610.022 231.469 610.022 232.904 609.938 233.748 609.516 234.676 609.262 235.182 608.925 235.604 608.419 235.942 608.925 236.279 609.347 236.701 609.6 237.207 610.106 238.136 610.191 239.064 610.191 240.836 610.106 243.03 609.938 244.38 608.756 245.646ZM606.647 237.629C606.393 237.292 605.971 237.123 605.549 237.123 605.128 237.123 604.706 237.292 604.453 237.629 603.946 238.22 604.031 239.317 604.031 240.667 604.031 241.849 604.031 243.03 604.453 243.621 604.706 243.958 605.128 244.127 605.549 244.127 605.971 244.127 606.393 243.958 606.647 243.621 607.068 243.03 607.068 241.849 607.068 240.667 607.068 239.401 607.068 238.22 606.647 237.629ZM606.478 229.022C606.225 228.769 605.887 228.6 605.465 228.6 605.043 228.6 604.706 228.684 604.453 229.022 604.031 229.528 604.031 230.625 604.031 231.553 604.031 232.566 604.031 233.663 604.537 234.254 604.79 234.507 605.043 234.591 605.465 234.591 605.803 234.591 606.14 234.507 606.393 234.254 606.9 233.748 606.9 232.566 606.9 231.553 606.9 230.625 606.9 229.528 606.478 229.022Z" fill="#000000" fill-rule="nonzero" fill-opacity="1" transform="matrix(1.00265 0 0 1 1193 2085)"/><path d="M620.233 245.646C619.389 246.405 618.292 246.827 617.026 246.827 615.76 246.827 614.579 246.405 613.735 245.646 612.891 244.886 612.469 243.874 612.469 242.27L612.469 230.541C612.469 228.938 612.975 227.925 613.735 227.165 614.579 226.406 615.76 225.984 617.026 225.984 618.292 225.984 619.473 226.406 620.233 227.165 621.076 227.925 621.498 228.938 621.498 230.541L621.498 242.186C621.583 243.874 621.076 244.802 620.233 245.646ZM618.545 230.372C618.545 229.191 617.87 228.6 617.026 228.6 616.182 228.6 615.507 229.191 615.507 230.372L615.507 242.27C615.507 243.452 616.182 244.043 617.026 244.043 617.87 244.043 618.545 243.452 618.545 242.27L618.545 230.372Z" fill="#000000" fill-rule="nonzero" fill-opacity="1" transform="matrix(1.00265 0 0 1 1193 2085)"/><path d="M631.793 245.646C630.95 246.405 629.853 246.827 628.587 246.827 627.321 246.827 626.14 246.405 625.296 245.646 624.452 244.886 624.03 243.874 624.03 242.27L624.03 230.541C624.03 228.938 624.536 227.925 625.296 227.165 626.14 226.406 627.321 225.984 628.587 225.984 629.853 225.984 631.034 226.406 631.793 227.165 632.637 227.925 633.059 228.938 633.059 230.541L633.059 242.186C633.059 243.874 632.553 244.802 631.793 245.646ZM630.021 230.372C630.021 229.191 629.346 228.6 628.502 228.6 627.658 228.6 626.983 229.191 626.983 230.372L626.983 242.27C626.983 243.452 627.658 244.043 628.502 244.043 629.346 244.043 630.021 243.452 630.021 242.27L630.021 230.372Z" fill="#000000" fill-rule="nonzero" fill-opacity="1" transform="matrix(1.00265 0 0 1 1193 2085)"/><path d="M643.27 245.646C642.426 246.405 641.329 246.827 640.063 246.827 638.797 246.827 637.616 246.405 636.772 245.646 635.928 244.886 635.506 243.874 635.506 242.27L635.506 230.541C635.506 228.938 636.013 227.925 636.772 227.165 637.616 226.406 638.797 225.984 640.063 225.984 641.329 225.984 642.51 226.406 643.27 227.165 644.029 227.925 644.536 228.938 644.536 230.541L644.536 242.186C644.536 243.874 644.114 244.802 643.27 245.646ZM641.498 230.372C641.498 229.191 640.823 228.6 639.979 228.6 639.135 228.6 638.46 229.191 638.46 230.372L638.46 242.27C638.46 243.452 639.135 244.043 639.979 244.043 640.823 244.043 641.498 243.452 641.498 242.27L641.498 230.372Z" fill="#000000" fill-rule="nonzero" fill-opacity="1" transform="matrix(1.00265 0 0 1 1193 2085)"/><path d="M693.648 237.207 690.019 246.658 686.897 246.658 690.272 238.389C689.935 238.642 689.429 238.726 689.007 238.726 687.91 238.726 686.981 238.304 686.306 237.46 685.547 236.532 685.294 235.435 685.294 232.397 685.294 229.697 685.631 228.516 686.306 227.587 687.15 226.406 688.416 225.984 689.935 225.984 691.538 225.984 692.804 226.575 693.563 227.587 694.407 228.769 694.576 229.95 694.576 232.397 694.492 234.169 694.154 235.857 693.648 237.207ZM691.032 229.191C690.779 228.853 690.357 228.684 689.935 228.684 689.513 228.684 689.091 228.853 688.838 229.191 688.332 229.781 688.416 231.132 688.416 232.397 688.416 233.663 688.416 235.013 688.838 235.688 689.091 236.026 689.513 236.195 689.935 236.195 690.357 236.195 690.779 236.026 691.032 235.688 691.538 235.098 691.454 233.663 691.454 232.397 691.454 231.132 691.454 229.866 691.032 229.191Z" fill="#000000" fill-rule="nonzero" fill-opacity="1" transform="matrix(1.00265 0 0 1 1193 2085)"/><path d="M704.618 245.646C703.774 246.405 702.677 246.827 701.411 246.827 700.146 246.827 698.964 246.405 698.12 245.646 697.276 244.886 696.854 243.874 696.854 242.27L696.854 230.541C696.854 228.938 697.361 227.925 698.12 227.165 698.964 226.406 700.146 225.984 701.411 225.984 702.677 225.984 703.858 226.406 704.618 227.165 705.462 227.925 705.884 228.938 705.884 230.541L705.884 242.186C705.968 243.874 705.462 244.802 704.618 245.646ZM702.93 230.372C702.93 229.191 702.255 228.6 701.411 228.6 700.567 228.6 699.892 229.191 699.892 230.372L699.892 242.27C699.892 243.452 700.567 244.043 701.411 244.043 702.255 244.043 702.93 243.452 702.93 242.27L702.93 230.372Z" fill="#000000" fill-rule="nonzero" fill-opacity="1" transform="matrix(1.00265 0 0 1 1193 2085)"/><path d="M716.179 245.646C715.335 246.405 714.238 246.827 712.972 246.827 711.706 246.827 710.525 246.405 709.681 245.646 708.837 244.886 708.415 243.874 708.415 242.27L708.415 230.541C708.415 228.938 708.922 227.925 709.681 227.165 710.525 226.406 711.706 225.984 712.972 225.984 714.238 225.984 715.419 226.406 716.179 227.165 717.023 227.925 717.445 228.938 717.445 230.541L717.445 242.186C717.445 243.874 716.938 244.802 716.179 245.646ZM714.407 230.372C714.407 229.191 713.732 228.6 712.888 228.6 712.044 228.6 711.369 229.191 711.369 230.372L711.369 242.27C711.369 243.452 712.044 244.043 712.888 244.043 713.732 244.043 714.407 243.452 714.407 242.27L714.407 230.372Z" fill="#000000" fill-rule="nonzero" fill-opacity="1" transform="matrix(1.00265 0 0 1 1193 2085)"/><path d="M727.655 245.646C726.811 246.405 725.714 246.827 724.448 246.827 723.183 246.827 722.001 246.405 721.157 245.646 720.314 244.886 719.892 243.874 719.892 242.27L719.892 230.541C719.892 228.938 720.398 227.925 721.157 227.165 722.001 226.406 723.183 225.984 724.448 225.984 725.714 225.984 726.896 226.406 727.655 227.165 728.415 227.925 728.921 228.938 728.921 230.541L728.921 242.186C728.921 243.874 728.499 244.802 727.655 245.646ZM725.883 230.372C725.883 229.191 725.208 228.6 724.364 228.6 723.52 228.6 722.845 229.191 722.845 230.372L722.845 242.27C722.845 243.452 723.52 244.043 724.364 244.043 725.208 244.043 725.883 243.452 725.883 242.27L725.883 230.372Z" fill="#000000" fill-rule="nonzero" fill-opacity="1" transform="matrix(1.00265 0 0 1 1193 2085)"/><path d="M767.823 246.574 767.823 229.697 764.785 232.06 764.785 228.6 767.823 226.153 770.86 226.153 770.86 246.574 767.823 246.574Z" fill="#000000" fill-rule="nonzero" fill-opacity="1" transform="matrix(1.00265 0 0 1 1193 2085)"/><path d="M783.265 245.646C782.421 246.405 781.324 246.827 780.059 246.827 778.793 246.827 777.611 246.405 776.767 245.646 775.924 244.886 775.502 243.874 775.502 242.27L775.502 230.541C775.502 228.938 776.008 227.925 776.767 227.165 777.527 226.406 778.793 225.984 780.059 225.984 781.324 225.984 782.506 226.406 783.265 227.165 784.109 227.925 784.531 228.938 784.531 230.541L784.531 242.186C784.615 243.874 784.109 244.802 783.265 245.646ZM781.577 230.372C781.577 229.191 780.902 228.6 780.059 228.6 779.215 228.6 778.54 229.191 778.54 230.372L778.54 242.27C778.54 243.452 779.215 244.043 780.059 244.043 780.902 244.043 781.577 243.452 781.577 242.27L781.577 230.372Z" fill="#000000" fill-rule="nonzero" fill-opacity="1" transform="matrix(1.00265 0 0 1 1193 2085)"/><path d="M794.826 245.646C793.982 246.405 792.885 246.827 791.619 246.827 790.353 246.827 789.172 246.405 788.328 245.646 787.484 244.886 787.062 243.874 787.062 242.27L787.062 230.541C787.062 228.938 787.569 227.925 788.328 227.165 789.172 226.406 790.353 225.984 791.619 225.984 792.885 225.984 794.066 226.406 794.826 227.165 795.67 227.925 796.092 228.938 796.092 230.541L796.092 242.186C796.092 243.874 795.585 244.802 794.826 245.646ZM793.054 230.372C793.054 229.191 792.379 228.6 791.535 228.6 790.691 228.6 790.016 229.191 790.016 230.372L790.016 242.27C790.016 243.452 790.691 244.043 791.535 244.043 792.379 244.043 793.054 243.452 793.054 242.27L793.054 230.372Z" fill="#000000" fill-rule="nonzero" fill-opacity="1" transform="matrix(1.00265 0 0 1 1193 2085)"/><path d="M806.302 245.646C805.458 246.405 804.362 246.827 803.096 246.827 801.83 246.827 800.648 246.405 799.805 245.646 798.961 244.886 798.539 243.874 798.539 242.27L798.539 230.541C798.539 228.938 799.045 227.925 799.805 227.165 800.648 226.406 801.83 225.984 803.096 225.984 804.362 225.984 805.543 226.406 806.302 227.165 807.146 227.925 807.568 228.938 807.568 230.541L807.568 242.186C807.568 243.874 807.062 244.802 806.302 245.646ZM804.53 230.372C804.53 229.191 803.855 228.6 803.011 228.6 802.167 228.6 801.492 229.191 801.492 230.372L801.492 242.27C801.492 243.452 802.167 244.043 803.011 244.043 803.855 244.043 804.53 243.452 804.53 242.27L804.53 230.372Z" fill="#000000" fill-rule="nonzero" fill-opacity="1" transform="matrix(1.00265 0 0 1 1193 2085)"/><path d="M817.779 245.646C816.935 246.405 815.838 246.827 814.572 246.827 813.306 246.827 812.125 246.405 811.281 245.646 810.437 244.886 810.015 243.874 810.015 242.27L810.015 230.541C810.015 228.938 810.522 227.925 811.281 227.165 812.125 226.406 813.306 225.984 814.572 225.984 815.838 225.984 817.019 226.406 817.779 227.165 818.538 227.925 819.044 228.938 819.044 230.541L819.044 242.186C819.129 243.874 818.623 244.802 817.779 245.646ZM816.091 230.372C816.091 229.191 815.416 228.6 814.572 228.6 813.728 228.6 813.053 229.191 813.053 230.372L813.053 242.27C813.053 243.452 813.728 244.043 814.572 244.043 815.416 244.043 816.091 243.452 816.091 242.27L816.091 230.372Z" fill="#000000" fill-rule="nonzero" fill-opacity="1" transform="matrix(1.00265 0 0 1 1193 2085)"/><path d="M852.208 246.574 852.208 229.697 849.17 232.06 849.17 228.6 852.208 226.153 855.246 226.153 855.246 246.574 852.208 246.574Z" fill="#000000" fill-rule="nonzero" fill-opacity="1" transform="matrix(1.00265 0 0 1 1193 2085)"/><path d="M863.769 246.574 863.769 229.697 860.731 232.06 860.731 228.6 863.769 226.153 866.807 226.153 866.807 246.574 863.769 246.574Z" fill="#000000" fill-rule="nonzero" fill-opacity="1" transform="matrix(1.00265 0 0 1 1193 2085)"/><path d="M879.211 245.646C878.367 246.405 877.27 246.827 876.005 246.827 874.739 246.827 873.557 246.405 872.714 245.646 871.87 244.886 871.448 243.874 871.448 242.27L871.448 230.541C871.448 228.938 871.954 227.925 872.714 227.165 873.557 226.406 874.739 225.984 876.005 225.984 877.27 225.984 878.452 226.406 879.211 227.165 880.055 227.925 880.477 228.938 880.477 230.541L880.477 242.186C880.477 243.874 879.971 244.802 879.211 245.646ZM877.439 230.372C877.439 229.191 876.764 228.6 875.92 228.6 875.076 228.6 874.401 229.191 874.401 230.372L874.401 242.27C874.401 243.452 875.076 244.043 875.92 244.043 876.764 244.043 877.439 243.452 877.439 242.27L877.439 230.372Z" fill="#000000" fill-rule="nonzero" fill-opacity="1" transform="matrix(1.00265 0 0 1 1193 2085)"/><path d="M890.688 245.646C889.844 246.405 888.747 246.827 887.481 246.827 886.215 246.827 885.034 246.405 884.19 245.646 883.346 244.886 882.924 243.874 882.924 242.27L882.924 230.541C882.924 228.938 883.431 227.925 884.19 227.165 885.034 226.406 886.215 225.984 887.481 225.984 888.747 225.984 889.928 226.406 890.688 227.165 891.532 227.925 891.953 228.938 891.953 230.541L891.953 242.186C891.953 243.874 891.447 244.802 890.688 245.646ZM888.916 230.372C888.916 229.191 888.241 228.6 887.397 228.6 886.553 228.6 885.878 229.191 885.878 230.372L885.878 242.27C885.878 243.452 886.553 244.043 887.397 244.043 888.241 244.043 888.916 243.452 888.916 242.27L888.916 230.372Z" fill="#000000" fill-rule="nonzero" fill-opacity="1" transform="matrix(1.00265 0 0 1 1193 2085)"/><path d="M902.164 245.646C901.32 246.405 900.223 246.827 898.958 246.827 897.692 246.827 896.51 246.405 895.667 245.646 894.823 244.886 894.401 243.874 894.401 242.27L894.401 230.541C894.401 228.938 894.907 227.925 895.667 227.165 896.51 226.406 897.692 225.984 898.958 225.984 900.223 225.984 901.405 226.406 902.164 227.165 902.924 227.925 903.43 228.938 903.43 230.541L903.43 242.186C903.514 243.874 903.008 244.802 902.164 245.646ZM900.476 230.372C900.476 229.191 899.801 228.6 898.958 228.6 898.114 228.6 897.439 229.191 897.439 230.372L897.439 242.27C897.439 243.452 898.114 244.043 898.958 244.043 899.801 244.043 900.476 243.452 900.476 242.27L900.476 230.372Z" fill="#000000" fill-rule="nonzero" fill-opacity="1" transform="matrix(1.00265 0 0 1 1193 2085)"/><path d="M936.593 246.574 936.593 229.697 933.556 232.06 933.556 228.6 936.593 226.153 939.631 226.153 939.631 246.574 936.593 246.574Z" fill="#000000" fill-rule="nonzero" fill-opacity="1" transform="matrix(1.00265 0 0 1 1193 2085)"/><path d="M944.357 246.574 944.357 243.958 949.504 234.001C949.926 233.157 950.348 231.891 950.348 230.372 950.348 229.191 949.758 228.6 948.914 228.6 948.07 228.6 947.395 229.191 947.395 230.372L947.395 231.722 944.357 231.722 944.357 230.541C944.357 228.938 944.779 227.925 945.623 227.165 946.466 226.406 947.648 225.984 948.914 225.984 950.179 225.984 951.276 226.322 952.036 227.081 952.88 227.841 953.386 228.938 953.386 230.625 953.386 232.144 952.964 233.832 952.289 235.098L947.648 243.874 953.386 243.874 953.386 246.574 944.357 246.574Z" fill="#000000" fill-rule="nonzero" fill-opacity="1" transform="matrix(1.00265 0 0 1 1193 2085)"/><path d="M963.597 245.646C962.753 246.405 961.656 246.827 960.39 246.827 959.124 246.827 957.943 246.405 957.099 245.646 956.255 244.886 955.833 243.874 955.833 242.27L955.833 230.541C955.833 228.938 956.34 227.925 957.099 227.165 957.943 226.406 959.124 225.984 960.39 225.984 961.656 225.984 962.837 226.406 963.597 227.165 964.441 227.925 964.862 228.938 964.862 230.541L964.862 242.186C964.862 243.874 964.356 244.802 963.597 245.646ZM961.825 230.372C961.825 229.191 961.15 228.6 960.306 228.6 959.462 228.6 958.787 229.191 958.787 230.372L958.787 242.27C958.787 243.452 959.462 244.043 960.306 244.043 961.15 244.043 961.825 243.452 961.825 242.27L961.825 230.372Z" fill="#000000" fill-rule="nonzero" fill-opacity="1" transform="matrix(1.00265 0 0 1 1193 2085)"/><path d="M975.073 245.646C974.229 246.405 973.132 246.827 971.866 246.827 970.601 246.827 969.419 246.405 968.575 245.646 967.732 244.886 967.31 243.874 967.31 242.27L967.31 230.541C967.31 228.938 967.816 227.925 968.575 227.165 969.419 226.406 970.601 225.984 971.866 225.984 973.132 225.984 974.314 226.406 975.073 227.165 975.917 227.925 976.339 228.938 976.339 230.541L976.339 242.186C976.339 243.874 975.833 244.802 975.073 245.646ZM973.301 230.372C973.301 229.191 972.626 228.6 971.782 228.6 970.938 228.6 970.263 229.191 970.263 230.372L970.263 242.27C970.263 243.452 970.938 244.043 971.782 244.043 972.626 244.043 973.301 243.452 973.301 242.27L973.301 230.372Z" fill="#000000" fill-rule="nonzero" fill-opacity="1" transform="matrix(1.00265 0 0 1 1193 2085)"/><path d="M986.549 245.646C985.706 246.405 984.609 246.827 983.343 246.827 982.077 246.827 980.896 246.405 980.052 245.646 979.208 244.886 978.786 243.874 978.786 242.27L978.786 230.541C978.786 228.938 979.292 227.925 980.052 227.165 980.896 226.406 982.077 225.984 983.343 225.984 984.609 225.984 985.79 226.406 986.549 227.165 987.309 227.925 987.815 228.938 987.815 230.541L987.815 242.186C987.9 243.874 987.393 244.802 986.549 245.646ZM984.862 230.372C984.862 229.191 984.187 228.6 983.343 228.6 982.499 228.6 981.824 229.191 981.824 230.372L981.824 242.27C981.824 243.452 982.499 244.043 983.343 244.043 984.187 244.043 984.862 243.452 984.862 242.27L984.862 230.372Z" fill="#000000" fill-rule="nonzero" fill-opacity="1" transform="matrix(1.00265 0 0 1 1193 2085)"/><path d="M15.1894 213.495 977.183 213.495 977.183 215.183 15.1894 215.183Z" fill="#000000" fill-rule="nonzero" fill-opacity="1" transform="matrix(1.00265 0 0 1 1193 2085)"/></g></g></g></g></g></svg>